<mxfile host="Electron" modified="2023-04-20T09:20:15.284Z" agent="Mozilla/5.0 (Windows NT 10.0; Win64; x64) AppleWebKit/537.36 (KHTML, like Gecko) draw.io/21.1.2 Chrome/106.0.5249.199 Electron/21.4.3 Safari/537.36" etag="_YTfdotRzDXEGheqqdxy" version="21.1.2" type="device">
  <diagram name="Seite-1" id="qY38zBAmd32qpwX3a3Dl">
    <mxGraphModel dx="1687" dy="1024" grid="1" gridSize="10" guides="1" tooltips="1" connect="1" arrows="1" fold="1" page="1" pageScale="1" pageWidth="827" pageHeight="1169" math="0" shadow="0">
      <root>
        <mxCell id="0" />
        <mxCell id="1" parent="0" />
        <mxCell id="3T9PzSUFlM8iKbFbuDOI-1" value="" style="shape=image;aspect=fixed;image=data:image/png,iVBORw0KGgoAAAANSUhEUgAAA08AAALUCAMAAADkNvkcAAAABGdBTUEAALGPC/xhBQAAAAFzUkdCAK7OHOkAAAAJdnBBZwAABywAAAlIAJdquEgAAAIrUExURf///wYGBkRERHZ2dgAA/wC/vxQUFAAAAAB+AP8AALu7uxoaGjg4OBISEmZmZs3Nze/v75mZmd3d3RAQEGRkZP+7uwQEBAICAomJiSIiIjIyMv9ERP92du/v/3a7dg4ODhYWFgoKCs3N/1RUVHbd3QgICA4O/6urq0ShRO/7+2Zm/+/375mZ/zAwMCwsLDQ0NM3lzRgYGHZ2/4nDid3v3Q6HDiDHxyoqKjIy/7vdu7vv76vVqzAw/1SrVETR0Q7Dw93d/6ur/93394mJ/yAg/5nl5VRU/2bZ2TCXMGazZpnNmc3z8xAQ/yCPIBDDw6vr60RE/1TV1Ynh4bu7/zLNzTKZMh6PHv/d3QyHDP/NzQQEFgBMTP/v7wICFOFYWAAA8wICmwwMDAQEOCKRIjZCQgAYGAC1tQB+fhCHEAAA8QAyMmBgYAICNhqBgUCfQAICaAQEagBychaJiQIC0QAA0QS5uQCNjQICvQwMcgCZmYkAABCdnShcXKOjo1IODgAA4c8SEqPFowivrwICiQICiwQEJmB6YAYG01p0dAK3t4uLiyJISBwcHAK5uTBKSqW9pWClYK+9vYu9vRZ6enCTcAAAvVi/vxCJEDh8OAiVlSiHKAICqw6bmyLJyQICrQICRi4uLgBcABxcXAQESAIC8yh8KBgyMjCjo9HR0aWlpQAAmRyNHACnp1h6WAQEejqZOgAMDAAAmwAiABoaKgBmZgIC4QICej6fPmhoaEZlUi8AACAASURBVHgB7X35l+W2lR67XpVYfpKrXr0XW1Vld/drtVrdUst2abUW25K12C3ZsuV9mZnM2OOZ2B7PktkyycST7WSZk5zsycl6si9nsp7sf14AkuADSBDAJQk+APz4w+MjeHFx8V18BIhLElmGDQgAASAABIAAEAACQAAIAAEgAASAABAAAkAACAABIAAEgAAQAAJAAAgAASAABIAAEAACQAAIAAEgAASAABAAAkAACAABIAAEgEAXAl95sutMmf74K+bzzme/4iw5TPDJzw/LPyz3aHANMcPm0yG6rXnfeNwqMo7AK2+PoyezwUUp6JUjc/Wf/NLXx7H6q0dfHUeRTcvjR2NdAWwlac6PBpdGt3OSzafOinoJfubojV75yJle/JKlK3DUaIWLUtCLR+bqf/7oaJTLwJOvHb02TvUtKH3h6GikK4ClIO3pseDSKndNtPnUVU8vuS8fHU0zEnn8yNIVuJpvg4tS0FePjo4+YyiYtc6jUS4DzKiRqm+wlp/6DCtoop6wbclocLVVu6fYfOquqY8ka52TDBDYBdrSFThab4OLUlAha6o+b51j8IA3tHGqb0GJXR6PJuoJNZaMBZdGtXOS1afOmvoI8uvm0Yt9chLzsJHAKD2hFS5KQYWsofpvc6PH4EHR0Iw9IRHOLnF+eRzlCtBVgCn97aJw8wDalH+UczafjlJIl5KydU4wQCgv0KauoMvERroNLkpBlWxnB/Rk2TqH86DoNVhj+3KjMqMfFpdHVtBEt8Sq/aPBpaqlHdl8StNGlS5b5wQDhPICbegKHC23wkUpqJLtrL5onYMvAxUvh1ffgtIbfFDNN9M9oUVH/9OjwdXfhPL+kSMwzexPw9JXeMl8M08aN3L1OHy7KIX9DL1VtlGAUpDoNY6O9CGbunUO5UHd0HzjXF0eGc7ee8J2IxgNrrZq9xSbT9019ZEUrfPo6At9sjvnESOBwZcNG1yUgnayHdX/irgIDLwM7Bqa56tmfXmc5pa44f6x4GqoJR1afUrSRhWuL+a+Bwi7C/SwK7QVLkpBkuzRP374b3z8kWL7hNh/8s/u6HT0Oz945JOfKAXE/uPV8cc/VqZ/TOwrBR8Tij7+m5Ki33zkkU+W8gMUlgo+USsSCv+ZVNCvPvJIp4UNS3dV7lIsqir2lQKl6jJcf/iDQpOwUOxbVW9aqChkKnYYqpZ1Kvx7EgK/z/IMVkjx9g/+olT6vy4tblWZopCraDqHK/ybvyMV9NeFU8ReeFfsW+2xtIxj+KuSnt8Xlon9x//lw//+DyUBS5cr9Ros08/kre1PS7qO/mTrtHPCj2U9Rz92zkcW/Bm5oF/+7+T8wzKMBdcQK37pl2UIND4dotya93/Jhf9nq3h/gT8hF/S7/fVY4VIKstyT7+41uHUvth5eeFs2umNE6DQg2A2quUaLVU4adULL/O98SbFYf0+oyzpK2ttK4QPuH34l72+Pzaf9NTvkfENF4PEhFTEWJw3reZH9b5VtcFEKasi2xqFPqq2zPw/eVmEe5/GlNt7L/B82Cpr0Mb7R4Mr+X38+2XzaRm3MFOn+kXvitb/WvyJms76uOrp39NgKF6WghuzRa42QzeOq0b0vA82GpukJzeg5nl3+UtNgXz2h1qCx4MqyRf9maPOp1vKxEput8+g/9K+I0aa3m47uOzlvg4tSUEu28RRjo/NmVWiPCI21FidbDa3VEwrJYfulMtYtIB/lQV43q0aDawifbD51q0pfqWbrPDr6cV9VxnytC3SrKzBm3520wUUpqC3beIpRvekpmmevy0C7oXl6eOHvFjYqP/98h53vf2PBxezs3T9ZfeoVhHbrPPpdLwW2L9Ad4VNL6Va4+hWU37SUG8npZb6MxFKLmb35ZNE7+elkKnLtGgE78IkA1hSiyTTDZCpC49NDUzQS/2WsF2v/hUxRwnIxRSkTlJFMRb73PQJa+ZYgHLJoKs1wnUxFzkJuLgTbblJuicAnArJTiIJPU6BMKYPGp4cpqiELBGaHwEOUW6IcfJpdA0GFSQiATyS4IAwEjAiAT0Z4cBIIkBAAn0hwQRgIGBEAn4zw4CQQICFA49OWpDtc4WTCNslUBPGncNlit+zALhKFxGkyFUnlwnDrFqHhYL6cABZE54gAbbyH+NMc2wjq7I4A+OSOFSSBgA0B8MmGEM4DAXcEwCd3rCAJBGwIgE82hHAeCLgjQOPTM+6Kg5ZM5HX3bJVMRU6Dbi/uxm027rJZMu8/JRO2SaYiiD8ReAhRIDATBGjjPcSfZtIsUM2eCIBPPYFDNiCgQQB80oCCJCDQEwHwqSdwyAYENAiATxpQkAQEeiJA4xPiTz1h9pQN8SdPwPZWS4s/UT6G1NukCTJ6Wh1lAsvVIpbJVCSVQNqdO6qHjEd4/8kID04CAdp4D/EntBggYEIAfDKhg3NAgIYA+ETDC9JAwIQA+GRCB+eAAA0B8ImGF6SBgAkBGp8QfzJhOf05xJ+mx9xcIuJPZnzCPov4U2j+QfwpNI/AnpgRoI33EH+K2dew3T8C4JN/jFHCfBAAn+bja9TUPwLgk3+MUcJ8EACf5uNr1NQ/AuCTf4xRwnwQoPEJ7z+F1TIQfwrLH1mG+FNoHoE9MSNA658Qf4rZ17DdPwLgk3+MUcJ8EACf5uNr1NQ/AuCTf4xRwnwQAJ/m42vU1D8C4JN/jFHCfBCg8Qnxp7BaBuJPYfmDGn/C+7lh+Q/v54bljyyjvZ+L+FNo/oM9YSFAG++BT2F5D9aEhgD4FJpHYE/MCIBPMXsPtoeGAPgUmkdgT8wIgE8xew+2h4YAjU/b0MzvaU8qqw2dJlORRU9Phpbt1i2CRTniTwS0JhBF/GkCkElFIP5EggvCQMCIAG28h/iTEUycnD0C4NPsmwAAGBEB8GlEMKFq9giAT7NvAgBgRATApxHBhKrZI0Dj0zYRvJIJ2yRTkXnGn1LhUyreWydTkbNErtQ3bxIqkmO+nIAWRGeIAG28Bz7NsImgygQEwCcCWBAFAhYEwCcLQDgNBAgIgE8EsCAKBCwIgE8WgHAaCBAQoPFpS9AcsmgyYZtkKpLKxD/t/adU+JSK9xB/Cu2qjfhTaB6BPTEjQBvvIf4Us69hu38EwCf/GKOE+SAAPs3H16ipfwTAJ/8Yo4T5IAA+zcfXqKl/BGh82vo3aJISMF8+Cczuhazn+b7G1h2hoCXBp8DcM1M+Yb48sHYIcwJDgDbeA58Ccx/MCQwB8Ckwh8CcqBEAn6J2H4wPDAHwKTCHwJyoEQCfonYfjA8MARqftoFZ39cczJf3Rc5TvpnOl289wTm12mRew0umIqlc4WjvE2K+fGrmo7y4EKCN98CnuLwLa6dGAHyaGnGUlzIC4FPK3kXdpkYAfJoacZSXMgLgU8reRd2mRoDGp2emNs9TeUtPeqdWu0qmIqdTQ+epvM2GoDjfEoRDFk0mbJNMRRB/CpkvsA0I7AcB2ngP8af9eAmlxoIA+BSLp2BnDAiATzF4CTbGggD4FIunYGcMCIBPMXgJNsaCAI1PiD+F5VfEn8LyR5bR4k8PhWZ+T3vynvlCy7ZMpiKpBNLu3CG0kRzz5QS0IDpDBGjjPfBphk0EVSYgAD4RwIIoELAgAD5ZAMJpIEBAAHwigAVRIGBBAHyyAITTQICAAI1PiD8RoJ1AFPGnCUAmFYH4EwmuwIQRfwrMIRniT6F5BPbEjABtvIf4U8y+hu3+EQCf/GOMEuaDAPg0H1+jpv4RAJ/8Y4wS5oMA+DQfX6Om/hEAn/xjjBLmgwCNT3j/KayWgfhTWP7IEH8KzSGwJ2oEaP0T4k9ROxvGe0cAfPIOMQqYEQLg04ycjap6RwB88g4xCpgRAuDTjJyNqnpHAHzyDjEKmBECND4h/hRW00D8KSx/UONPeD83LP/h/dyw/EH9PiziT6H5D/aEhQBtvAc+heU9WBMaAuBTaB6BPTEjAD7F7D3YHhoC4FNoHoE9MSMAPsXsPdgeGgI0PiH+FJb/EH8Kyx+IP4XmD5o9iD/R8PIvTfs+LObL/XsEJcSMAG28Bz7F7GvY7h8B8Mk/xihhPgiAT/PxNWrqHwHwyT/GKGE+CIBP8/E1auofARqftv4NmqSEg0lK8V/IaTIVWfgHa5ISbt0iFJPj/ScCWhOIIv40AcikIhB/IsEFYSBgRIA23kP8yQgmTs4eAfBp9k0AAIyIAPg0IphQNXsEwKfZNwEAMCIC4NOIYELV7BGg8WmbCF7JhG2Sqcg840+p8CkV762TqchZIlfqmzcJFckxX05AC6IzRIA23gOfZthEUGUCAuATASyIAgELAuCTBSCcBgIEBMAnAlgQBQIWBMAnC0A4DQQICND4tCVoDlk0mWnmZCoyz/ly8CmsqwTiT2H5I8sQfwrNI7AnZgRo4z3En2L2NWz3jwD45B9jlDAfBMCn+fgaNfWPAPjkH2OUMB8EwKf5+Bo19Y8AjU9b/wZNUkIyYZtkKoL40yQN31MhybyGl0xFUrkw0L5niflyTwSH2kQQoI33wKdE3I5qeEIAfPIELNTOEgHwaZZuR6U9IQA+eQIWameJAPg0S7ej0p4QoPFp68mKqdWmMjuL9zWmbjm28mjva2xt6iI5n0zYJpmKpHKFQ/wpkksAzIwCAdp4D/GnKJwKI/eGAPi0N+hRcIIIgE8JOhVV2hsC4NPeoEfBCSIAPiXoVFRpbwjQ+PTM3uwct+DluOr2pm2VTEVO94bhuAVvNgR9+ZYgHLJoMmGbZCqC+FPIfIFtQGA/CNDGe4g/7cdLKDUWBMCnWDwFO2NAAHyKwUuwMRYEwKdYPAU7Y0AAfIrBS7AxFgRofEL8KSy/Iv4Ulj+yjBZ/eig083vak/fMF1q2ZTIVSSWQducOoY3kfL78ox+Qto/Yc39IEv/AB+zydgmqBXaNnRLjG99ZVPOEAtuHmmc9H08IcV0T31gPr9NHZJ98tDa8/NNDPfjUwNDnoey7D4BPw6Hu0eAbhYJPDUDIh76vmQaDwCcDOH1OgU8dqA0HpkNxOxl8YrR2GNS3kaOn+MZ6eLNB/0T3qprDt4/V0pQj9E8KHMMPAuTTQ8vl8o/Ljna4dI3fJIcD4+yc8Y13LlqGGfdPzrB1Cw5vNob+aUXmBTM059ufkR1d8qmethXTt3n1Xg7f65rkono8f1FNk4r9sjo2KtTNMA5TyKp2UFl8ICwr9y3jmxZ2WtpU2FCcdVW5VijDzPk0WGHTOSaFStv782UbFZaJfdZUKLzeVOzonBbW2UCFrMGWlpeKlDqVDbfLKR3OafOptvBcx4uq9M5dfjOR/kng3FlTcaLtY3HG+77JJ12BddPWnRySpml7Q9RZ8/LLlG+sh9epzae6Yv36p4dZfqpZ48NEtaCuNP3P+MY72+DCJ2dlVMEJIa5N84318DoZ+ETnBas34k+18/3/AZ9Gxhh86gB0ODAditvJvq+Z7RLrFPCphmKcP8ObDfqnoZ4AnxitHSZxh+LM8/vGGnzq8NJwYDoUt5N9+7hdYp2C/qmGYpw/w5uNl/7pWx+Stu/Yq/qzkviHRnkOjWqB3cZOifGN7yyqeUKB7WebZz0fTwhxXRPfWA+v03dkn3yrNrz8U6r/gz8oZBx4wXIV8xENNTgEAkCgRoD2PiHef6qBC+KPt/jT1LUTYfKpyx29PNr7T3g/d3QHDFKI93MHwechM+39XB7PxQYEgEAXArTxHvjUhSPSgQBHAHxCOwAC4yEAPo2HJTQBAfAJbQAIjIcA+DQeltAEBGh8QvwprBaD+FNY/sgyxJ9C8wjFHsSfKGhNIYv40xQoo4y5IEAb7yH+NJd2gXr2QwB86ocbcgEBHQLgkw4VpAGBfgiAT/1wQy4goEMAfNKhgjQg0A8BGp+2/QoJLlcqqw2dJlOR6jOiwbUUqkG3bhFy5Hj/iYDWBKKIP00AMqkIxJ9IcEEYCBgRoI33EH8ygomTs0cAfBreBB5KbPvpcEhmqwF8Guz6h/MPJrXl3xsMyXwVgE+Dff+w82odg4uaRMEHPzhJMWkWAj4N9iv4NBjCdBTQ+LRNpOKjhm3Ap+Gt4nSe8adU+DSq98Cn4Xxanw3XEYSGmzcJZuB7yzqwwCcdKjNNo433EH/SNBPwSQPKXJPAp8GeB58GQ5iOAvBpsC/Bp8EQpqMAfBrsSzc+Pfvs4IImUoD40wCgwacB4JVZnfj02cPDzw4uSShYL5TpsOVimWWNNCHaYw8+9QBNZKHxaSuyRb6ffL789ScOD594fSzUlrkSQFvkrD6NtAFF7YNPM50v3w5wU0hZJ+fTS4dse2ksCBrc6eLT4uDUVqJOBHyyoWY4j/iTARy3Uw7jvac4nQ4Px7qFWi0VohR8aqRx0w9yNg40bzqRffDJbGVEZ2njPcSfNK618+npkk5j3kLJdhR8khOq/zqyNMR0IuBTAyTKIfhEQUsra+XTY+zmqdyeeEyroU5cnS0W52txuFwsFutsvWQJde+zXK6ko7uFhNI/cRUL3n2dLi/zc56X/WVJRVqVlZfC1MgiXKzawCeBRI89+NQDNDWLjU/XPyXodHj4qetqXvXobJPzrby7Wx2UB+rdUc7HcNX90/qyLVGpOFix0R7fmK5KUc7SiqynF/zE5i4fEPKteTMJPqleIR2BTyS4dMI2PlU3TyWpntJpqNLO8vz2+dlJnp+whBUjy8licZFvlNk7iU+1xMVOYpnnB+d3F1zFGct7wmfSL/PN4q5Qu8wvLy7OluebfJPtRBSjwCcFDtoB+ETDSyNt4VN981QS6mmNhjJpnedFWInRirFgkW/4qI2ThnUg9YyexCedxO38Nld2ztnCuh+mh2XNi9mL8/yiPLpcsf1poagSYcfSBj5JYFD/0vi0paoPVJ610PE2M59e3w32in/dUaiFiCqd8A6q6HSYkYwOHXwqOq6GxAEX5sFdviv5dHpQ1pYpKoXZQI9tlwXZQpmPQPypcEqsPwdjGm7m0/W3VEK91XkHdVB2T2wYxojFOqtqXuKyg0+sh2lL3M4veJ9UbipZzgWf5JOqSHlmH/3TTN8nxHx51VTlnZlP2WMqnx6Tsyr/i/slPhN3wkZrZW/Czxddjma8p5U4ZTMaFydnJdFqspyeLW5fspkHpq3OVZ6sRSRL9sEnqfi4/9LGe+CTxtsWPmVvyoR6U6OgSiom26of1u753Q7fuub39BJrNp3BtuLJiIosd4v5vAs2mce0gU8FqN5+wKfB0Nr4lH1uR6inDKWVMwSVQN3uaf0Tz71csL5ow7qokk93GbvO2CCw1FjrRf9kcEX/U+BTf+yqnFY+7W6hjOGny7ycKSjUau+O2HTfbn6vQ6LMXcxVCMrcLtLAp8pfXnfg02B4rXzKxAMS5scjFuVcd5ad8BkI3ewdn6rYxXM1M4CMbuWt022uouST6PZYP8Wqiv5psL+NCsAnIzwuJ+18yqoYVHfsiZcjxZ8YKdikhBJ/KoiyYrdCxdDtgMnr4k8VC5ncueBTRTv+MAXLBD5xqP1tND5t/RkyqWZ28R5vc+BTVjwjYbp54uawxxoOzs/ZhAI3b8Vm6ornI4r5cnbEn2q42BRho3K2T/d8BFex4E9GbFacTyfs+T2WtFguFxum7+66zScuom77mN9D/En1QWRH/PI+2ubCJ/4M30udkSdhCmv6fCvZfso6FH6wKI7L5/IuTosxXDV7vmJTdrVElVZO7+WXvG/j6piu24XUAe/bFk0+VSLCgGK/Dz4h/qS4YNYHLnxit1BPvG5Haa08X86eHmcPm5d8ylbnC/Utd66tfAJd0btmctWz5Oz5PP78XvF4OeMXe2iCH6lbJSIn7oNPcvlR/6eN9xB/0jjbiU/Z030/H1HxSVOwpyTwaQCw4NMA8MqsbnzqXQz41Bu6PWQEnwaDDj4NhjAdBeDTYF+CT4MhTEcB+DTYl575VHxdb7CRBAW4fyKA1RSl8emZZvZIj9vzXAMq4plPAyzrl3UffFoVrzz2szeoXJsNwZx8SxAOWXTy+FPIYDRt2wefEH9qemG+x+if5uv7Vs1p4z3En1oAZhn4pAFlrkng02DPg0+DIUxHAfg02Jfg02AI01EAPg32Jfg0GMJ0FIBPg30JPg2GMB0FND4h/qTx/Gh84l8rVzf2vPkBe59ppaaajkZYVm0f8+UzjT89ZHJlROf4m6qjbaPxSbyZLixbVS8zsfeWViLNtq8/LGYT7D6/Dz4tR40IdtfN+5k7dwhF5Jgv16DlwKerG984Pv7GjStNbimpwSf+3f5L/j0+vl9Jcqa/Wj7pVk3rVrIPPnVbE9kZ2ngPfNK4186nG8fVdkOTfZek8om9zs7XwOAb+7QrXyLAZasXtpGFyw+zyCmm/+CTCR3LOfDJApD9tI1P9x8IOrE+6r5Bn8on9ip6/VAb+9+8tTLoaZ0Cn1qQ+EoAnwYja+NT3TtxWpl6KIVP7Ass5XckCvuUg1O2php7eV281c7eZGfvuFfLsJX9U/HbXjWtXmvNWGf0T0Z4zCfBJzM+DmctfHp51zvxfy93a1T4xL60t9qJnsor5rLuhn9HhX3KqJQoD/gXwvj3wPidPfvVrJq2W2uNS3Zu4FMnNPYT4JMdI4uEhU+fVvn0Trc2hU8nYvWatvxBfpBf8GUDShG2Pzk7Z9864oQSfNKsmsY+vSfWWmvrlFLAJwkM6l/wiYpYS97CpxdUPr3Qyl8nKHyqVnKqT0p/GHWK6WXWhbEF2BhN2G/xAczVjk/ljKCyapqy1pqkrvkXfGoiQjim8QnxJw20Zj5dqXQ6PtZoqJIUPhWfseQnWES32Hb5GJ/K2YmiD7stOrLim7Cif6q+hS6vmqastbbT1vq3Dz4h/tRyw2wTzHxq3D4580l8nZx95bXcdviy8V55UHw8eSOWESi+f17zqZQoZ/bKX2WttZ221r998KllRKwJtP4J8SeNn818ut+zf6rHe6dLtpWLC1aF16cyPqVe92p8WcP6/ql6AkTmk7LWmqYeIgl8Ekj02INPPUBTs5j5lN1TCXVPzSwf1czgiSf5pXSu6InEscynJeNTOfgrqWTonzJ5rTWhS7MHnzSguCaBT65IdcpZ+PScyqd3O/XsehouwiYbKp5UR7t8TT5VX5ex9U9cQb3W2k5b6x/41ILEPQF8cseqQ9LCp+yBTKj/26GEJyv9E4vnSs8YsZuoXcbO+yfzeK9SwIZ9UqB4p7X+Bz7VUND/gE90zBo5bHy6kmbMX3i+kVk+VPjEV8co5sG5BLt9UvhUz++xMWHH/F6pWLp/WokO7zb4JKM+7n/waTCeNj5lV3UP9eDKVJrKJ768U9mRrBY5e8R8l5PHn1bs0Bh/KsUlPmVVv1SutbbT1vqH/qkFiXsCjU+IP2mQtfIpy268x8d875ke3mOKq4lxvuNE4oTa3GbPQWxYcFblE1tdrXg+opiy4M9HnC8YyXh31jEfUS2stltrTVMPkbQPPs00/vSMwDzyfXUHP04tHPiUZc+//LJpqFdY0uBTtlpsyiT2OuGB0j+xRdb4pjy/t1Ge36vEy/6JSzOGVq8nFmutGaq+Dz7N9P1cxJ807dCJT5p8DkkrtqRa+3V3Pr932ny+3PhSfLVqmrzWWnfp++BTtzWRnaGN98AnjXs98klTGkvazZfrzw9MBZ8GAAg+DQCvzAo+DYYwHQXg02Bfgk+DIUxHAfg02Jfg02AI01EAPg325eR8OtOs0z64FjsFuH/aYUH+R+MT4k8agCfnk8aGMZP2wSfEn8b04OS6po8/TV7F/gXug0+IP/X3V2o50T+l5tEB9aGN9xB/0kANPmlAmWsS+DTY8+DTYAjTUQA+DfYl+DQYwnQUgE+DfQk+DYYwHQXg02Bfgk+DIUxHAY1P20Qqzl4MH28Dn4ZjeWp+BX94AVNpuHWLUFKO9580aI3GJ/v6hOy9i2I7X7pH0MgrFiL+pHGya9Jm4yrJ5LCemg6s0fikvu/OXtCtXgDcrU8ovm3J3g8sXx/U2dNIK9/YbSSaDvfBJ5M9UZ2jjfcQf9I418an73xI2r6lUSCSGnzSrE94kG+qry+Xb9yKnKa9lk+mFQvBJxOclnPgkwUg+2kbnz7yAWn7qEGfyifd+oT1l8KKj0tI3+czaCWvWAg+GdC0nQKfbAhZz3viE/voQ2t9wh2f+LIad62mdQqU35XQnwaf9Lg4pYJPTjCZhPzwSbs+ocQn9jWk3ZzYqCsWgk8mb1vOgU8WgOyn/fBJuz6hyif+fbByY92N5otHPVcsBJ8ErD32ND5te5QQYpZJ40/97p+06xNKfFK+b87Sx1uxcB98mmn8KRU+7UZKI7DdT/+k/YhRzacVWwt31z3xNaKKS4Txi7GXK1ZZhxUL98GntVSZEVyyPxU3bxLKRvxJB5YfPmnXJ5TiTxfybARLLyf7xlixcB980uEaZRptvIf4k8bJfvikXZ9Q4pM0G8G/yFeNYIt1ogauWAg+aZzsmgQ+uSLVKeeHT/V4T16fsObNmq24IQ1aa2E26zd4xULwqdPV9hPgkx0ji4QfPmnXJ6z5xJapltcvlPk0eMVC8MnicNNp8MmEjtM5P3xS5u/40jTcFolPxchO2NfkU/W0bL8VC8EnAWuPPfjUAzQ1ix8+adcn7OZTx/0TS+5YwUZ6QL2xYiH4pPqXdETj05akO1xh6dZjuJF++KRdn7CbT/X83uXgFQv3waeZzpeDTxr62fikyaJPaj0PW0057NYnVPlUTpFzXTz+tGJ7Y/yJC3JR3jOVv/oVC8GnAqh+P4g/9cNNyjUin9hbGOXGO1DN+oQSn9bS8rqMHiOuWLgPPklwxv2XNt5D/EnjbV980qxPKPEpu8g3dQfF5iM0z+/1XLEQfNI42TUJfHJFqlNuND61S9CvT9iW4/N7o61YCD61AXZOAZ+coeoS9MinriKb6bv58uaZHsfgUw/QRBbwSSDRew8+9YYuCAZ6cwAAH8hJREFUvYzg02Cfgk+DIUxHAY1P20QqPmn8aQLMoh/vIf40QSvxV0T1NME4BQTQP426YuE+7p9m+j4h5ss1FAyATxqr+iftg0/9rQ0sJ228Bz5p3Ac+aUCZaxL4NNjz4NNgCNNRAD4N9iX4NBjCdBSAT4N9CT4NhjAdBeDTYF+CT4MhTEcBjU/bRCq+h/jTG2/Egt0+5vcQf4qldWjt3EP86Suf11oSYOI++IT4U4ANYU8mOY33Xjk6esVmn309tbaEWSd5LTWubh98MlcjorO08R7iTxrXOvHp60dHX9fkVZLU93N166k1JZTsmgPt2k8aOSUJfFLgoB2ATzS8NNIufPrqEdve1mSWkxps0ayn1pCQM2v/a/lkWkuNawGftFi6JYJPbjgZpBz49ORrnE9fetKghZ1S2aJbT02VMGvjZ8lrqfFM4BNHoecGPvUEbpfNgU+PczodHT2+y6T7p7JFt56aKqHT4ZBmWkuNZwefHEDsEgGfupBxTrfz6Y2STkdH5jlzhS3a9dQUicrAUddS4zrBJ2fXtwVpfHqmrSDKFOljjsPtt/PpM4JPnzGWprCFffprtZM+XRZrfyoS1dlR11LjOvfBp1W9tOmuzlH+22wIZudbgnDIotPGn74s6GSZM1fYol1PTZGoAGbfPBpvLTWucx98QvwpZLpMa5u1f3pxx6cXTaYpbNG+cqtIVKr4tyz5X+O3LF3XUuOK9sEnXm4SG228h/iTxuk2PlWTESWpvqpRIJIUtmjXU1MkqmyMT+vi7xhrqXFF4FOFbJ8d+NQHNSWPhU/lXLnool4zzJkrbNGup6ZIVEbU37gcYy01rhN8UtxLOwCfaHhppC18+rygUrk3PMansKUe78nrqSkSlSm14BhrqXGd4JPGya5J4JMrUp1yZj6xB/fU7QudihS2aNdTUyQqPTKfBq+lxnWCT50esp8An+wYWSTMfKrnygWruufMFbaw6YXytqgonR3xvSJRmdXkUxUL6LeWGtcJPlXI9tnR+IT4kwZjI5/eFjTa7b+s0VEkKWzRrqemSFRqOu+f2KwfeS01rnMffJpp/Omhyoex74qL/ViVMPPp8dbW+Visyhb2vNGZMJGtPm3on+r5vcvBa6nxAvfBpyUjfxLbnTuEauSYL9egZeSTRr4zSeUTX/6pfI94t56aKlEqGnUtNa5yH3zqxCS2E7TxHvik8e+IfBLLqRVE0qynVp8XVGPmjLqWGq8e+KRxsmsS+OSKVKecLz5p1lPT82nEtdR4JcGnTlfbT4BPdowsEqPxqV2Oy3pqfH5vtLXUuAngU9sRzingkzNUXYIe+dRVpJy+my+XUwf8B58GgAc+DQCvzAo+DYYwHQXg02Bfgk+DIUxHAY1PiD9pPA8+aUAhJiH+RAQsYfE982nUtdS4m3D/NKCx0vonxJ80UO+ZTxqLhiWBTwPwA58GgFdmBZ8GQ5iOAvBpsC/Bp8EQpqMAfBrsy4fzP5bUdo3yiZ7B6CWmAHwa7NBHpKeAkvi7HQzJfBWAT8N9f5LY9h+HQzJbDTQ+If4UVkNZjvoi1x7rNtP4E97P3WOb0xS9GvVDt5oCpkqa6fu5iD9N1cBQTpwI0MZ74FOcXobVUyEAPk2FNMqZAwLg0xy8jDpOhQD4NBXSKGcOCIBPc/Ay6jgVAjQ+If40lV/cykH8yQ2n6aRo399D/Gk6z7iUhPiTC0pTytDWJ8R8+ZS+QVnxIUAb74FP8XkYFk+JAPg0JdooK3UEwKfUPYz6TYkA+DQl2igrdQTAp9Q9jPpNiQCNT9spTfNYViqrDZ0mU5FyZR6PLp9I9a1bhIJyxJ8IaE0givjTBCCTikD8iQQXhIGAEQHaeA/xJyOYODl7BMCn2TcBADAiAuDTiGBC1ewRAJ9m3wQAwIgIgE8jgglVs0eAxqdtInglE7ZJpiLzjD+lwqdUvLdOpiJniVypb94kVCTHfDkBLYjOEAHaeA98mmETQZUJCIBPBLAgCgQsCIBPFoBwGggQEACfCGBBFAhYEACfLADhNBAgIEDj07bS/PKNGy87FnL/1Rs3rhxlLWJXz914975Fxu105zTz1Y0br45ThJshWfb8uzfefd5VuCk3YL6cufDVpjq/xyb3rceZLx/PfazZPnfliAdz4XPChbT58i0v4f47x8X2jkPDe/5eIfrCDUfTDGLP/bBQde/KION6qoNPN14oixDguKrrL/fqe0WJ7/Vs2n35dP9GUeyxiwv7V07JaXbfKHwaz31X9wp8nJrty4oLaXx6mEH0atnoWIH/ydpHPfftwi728+BKQZd8UBGTqxuBm9rirx5w7Xz79nNagdET73+6LI/93nC4OI1W/svfFOW+0JPIVFPicl91tWEg/Zrt0iquTEz209yFtPEe49OVcAXfX5lxfU6S/eGwBvNAUuWHUPfr6wQrahpC7ejEvGGGcsyzigut18RRSo7KfXKzfc/SbGUX3mNQUfl0v7608Qb+wAj289/mMmIb1GB2Vwyu7spYbM+TMjLH37Zdl3oWomST/XZ8/KpyzufBA+ESvv+mpcGMYkhU7lMuN5bR0KsylPwqTOWTioz5Oq600OPjAVfC5xWzj78xipNVJS+rRQxiv6q560jpEI+PX+iSGztdpbGlwYxSeFzuu6e2hCsTBPKYhrnwPplP31ALM7ZsVXSI4xpN4NhD71FNsgibJ2jd6rVtug7qnqhjuTePMUyNyflcVO67r8JjbLaNizAbYxD7p2ZhxwZMm4X9okHWcqrR0x2/a5HvcfoXGzAO6E0dS2909UbHOap0EmtU1MfFqWFHVO5rXub4XVHX1nThO0Q+5f+j6YyipPozcOJ1nINTlt7kE+PeogoznIn9orT0rNqfin2tqDx/r1HsjQUvgG09FS6ywkKmQOwXjRKO/36hP2ta2rRQX3VuWcPCtqWtShUlkhTy+XKyhc2a/pfKGW0LSwicq1xj2aj62T9pFPmPWorL+fLa65WCToXt5tMoobq56KOwyRHOpy6nNGX/VZ7fKuvm9Jvf+itNu4t89WfglpWa5Yr9afLph8yudSmwFvsKuHW1X4l9raiUv9co9sYpL4BtPRUussJCpkDsTxslHP+FQn/WtLRpob7q3LJVqUBYKPY7hc2rdjltSVLI+bRTWBZotbBZ079VOaNtoaNCgaHYN6u+/m+NIv92S3HJp9rrq1KgU2G7+TRKqPjUR2FzcMr51OWUJp/+3a9c+15putMve/9JvQE7/qYhX+MudMiMcNNuD4OxZuv2P+3VdNy7BizHPPWe2vYmuFOMyn3q9N7x8TsG7N9VoWTTc8T7p+wdVYOpsKzhuOcMhllONca0PppAo3UbJ1os1jqebl5vPEyyaC1puHCCmcy43NdotqbLXNOFV2Q+Ndh7pfVYlajCOCjQ8UChsY+AbmP2eopokNolTtCuS7+oYUE/wbxGs4jKfeqV1RzQVXte5kJq/5QpGiwNW2kwg8ZoCo0fNLw1zqHC/kkat0JhFruYalMajMWF49gUl/t+Tb54m5ut8ngDdyGZT9m9XWm2Vndfui4N9Js0Un3vahwnN7VIV4oH0zTuV3d3oy+Y/da0ddixNOLjd9sTbFG573lpxGe7SbmSXMjHNHQ+Zc9VKl6wlcXUizb63uDmUj+t6u/J0fox0YHcd2+f9WOi96a6eSptE0R2caF7bUySUbmvfsjVodnWzzSXLqTxaVtA9vxzn75379P1Kx8mGLPnb9y7d++dUV5bevUdpmqcd6nYNLNuu/8uL8KtYrr8PdJe5fj0fhOp7/sa2X2CC3vUSpfF6L5R3tcY0X1XhGb7suxC2vsaWx1QEaYdRGizzuQ6zqg7GVOaiBnHZLPWVtp6ag9rdSARCACBEgHaeA98QrsBAiYEwCcTOjgHBGgIgE80vCANBEwIgE8mdHAOCNAQAJ9oeEEaCJgQoPHpGZOqiM6J5/gjMllrav0egfZsRIniJZOITNabutno07Wp+VabHF8i4k+B+Qzxp8AcAnOAQAgI0MZ7iD+F4DPYEC4C4FO4voFl8SEAPsXnM1gcLgLgU7i+gWXxIQA+xeczWBwuAjQ+If4UlicRfwrLH1lGiz89FJr5Pe3Je+YLLdsymYqkEhG8c4fQRtj397ABASDQjQBtvAc+dSOJM0Cg1/dYABsQAAIdCKB/6gAGyUCgBwLgUw/QkAUIdCAAPnUAg2Qg0AMBGp8Qf+oBsccsiD95BLeXasSfesEWSCbEnwJxRG0G4k81FPgDBAYjQBvvIf40GHAoSBoB8Clp96JyEyMAPk0MOIpLGgHwKWn3onITIwA+TQw4iksaAfApafeichMjQOMT3n+a2D2W4hB/sgA0+WnEnyaHHAUmjACtf0L8KeGmgKqNgAD4NAKIUAEEKgTAJzQFIDAeAuDTeFhCExAAn9AGgMB4CIBP42EJTUCAxifEn8JqMYg/heWPLKPFn/B+blj+w/u5YfmD+n1YxJ9C8x/sCQsB2ngPfArLe7AmNATAp9A8AntiRgB8itl7sD00BMCn0DwCe2JGAHyK2XuwPTQEaHzahmZ+T3tSWW3oNJmKLHp6MrRst24RLMoRfyKgNYEo4k8TgEwqgvZ9WMyXk8CF8OwQoI33wKfZNRBUmIQA+ESCC8JAwIgA+GSEByeBAAkB8IkEF4SBgBEB8MkID04CARICND5tSbrDFU4mbJNMReYZf0qFT6l4b51MRc7CvfiSLLt5kyCeY76cgBZEZ4gAbbwHPs2wiaDKBATAJwJYEAUCFgTAJwtAOA0ECAiATwSwIAoELAiATxaAcBoIEBCg8WlL0ByyaDJhm2QqksrEP+39p1T4lIr3EH8K7aqN+FNoHoE9MSNAG+8h/hSzr2G7fwTAJ/8Yo4T5IAA+zcfXqKl/BMAn/xijhPkgAD7Nx9eoqX8EaHza+jdokhIwXz4JzO6FrOf5vsbWHaGgJcGnwNwzUz5hvjywdghzAkOANt4DnwJzH8wJDAHwKTCHwJyoEQCfonYfjA8MAfApMIfAnKgRAJ+idh+MDwwBGp+2gVnf1xzMl/dFzlO+mc6Xbz3BObXaZF7DS6YiqVzhaO8TYr58auajvLgQoI33wKe4vAtrp0YAfJoacZSXMgLgU8reRd2mRgB8mhpxlJcyAuBTyt5F3aZGgManZ6Y2z1N5S096p1a7SqYip1ND56m8zYagON8ShEMWTSZsk0xFEH8KmS+wDQjsBwHaeA/xp/14CaXGggD4FIunYGcMCIBPMXgJNsaCAPgUi6dgZwwIgE8xeAk2xoIAjU+IP4XlV8SfwvJHltHiTw+FZn5Pe/Ke+ULLtkymIqkE0u7cIbSRHPPlBLQgOkMEaOM98GmGTQRVJiAAPhHAgigQsCAAPlkAwmkgQEAAfCKABVEgYEEAfLIAhNNAgIAAjU+IPxGgnUAU8acJQCYVgfgTCa7AhBF/CswhGeJPoXkE9sSMAG28h/hTzL6G7f4RAJ/8Y4wS5oMA+DQfX6Om/hEAn/xjjBLmgwD4NB9fo6b+EQCf/GOMEuaDAI1PeP8prJaB+FNY/sgQfwrNIbAnagRo/RPiT1E7G8Z7RwB88g4xCpgRAuDTjJyNqnpHAHzyDjEKmBEC4NOMnI2qekcAfPIOMQqYEQI0PiH+FFbTQPwpLH9Q4094Pzcs/+H93LD8Qf0+LOJPofkP9oSFAG28Bz6F5T1YExoC4FNoHoE9MSMAPsXsPdgeGgLgU2gegT0xIwA+xew92B4aAjQ+bUMzv6c9qaw2dJpMRRY9PRlatlu3CBbliD8R0JpAFPGnCUAmFUH7Pizmy0ngQnh2CNDGe+DT7BoIKkxCAHwiwQVhIGBEAHwywoOTQICEAPhEggvCQMCIAPhkhAcngQAJARqftiTd4QonE7ZJpiLzjD+lwqdUvLdOpiJn4V58SZbdvEkQzzFfTkALojNEgDbeA59m2ERQZQIC4BMBLIgCAQsC4JMFIJwGAgQEwCcCWBAFAhYEwCcLQDgNBAgI0Pi0JWgOWTSZsE0yFUll4p/2/lMqfErFe4g/hXbVRvwpNI/AnpgRoI33EH+K2dew3T8C4JN/jFHCfBAAn+bja9TUPwLgk3+MUcJ8EACf5uNr1NQ/AjQ+bf0bNEkJmC+fBGb3QtbzfF9j645Q0JLgU2DumSmfMF8eWDuEOYEhQBvvgU+BuQ/mBIYA+BSYQ2BO1AiAT1G7D8YHhgD4FJhDYE7UCIBPUbsPxgeGAI1P28Cs72sO5sv7Iucp30zny7ee4JxabTKv4SVTkVSucLT3CTFfPjXzUV5cCNDGe+BTXN6FtVMjAD5NjTjKSxkB8Cll76JuUyMAPk2NOMpLGQHwKWXvom5TI0Dj0zNTm+epvKUnvVOrXSVTkdOpofNU3mZDUJxvCcIhiyYTtkmmIog/hcwX2AYE9oMAbbyH+NN+vIRSY0EAfIrFU7AzBgTApxi8BBtjQQB8isVTsDMGBMCnGLwEG2NBgMYnxJ/C8iviT2H5I8to8aeHQjO/pz15z3yhZVsmU5FUAml37hDaSI75cgJaEJ0hArTxHvg0wyaCKhMQAJ8IYEEUCFgQAJ8sAOE0ECAgAD4RwIIoELAgAD5ZAMJpIEBAgMYnxJ8I0E4givjTBCCTikD8iQRXYMKIPwXmkAzxp9A8AntiRoA23kP8KWZfw3b/CIBP/jFGCfNBAHyaj69RU/8IgE/+MUYJ80GAxKc/+p+egHnza54Uf+1NT4qvP+VJcfbUdU+aAfIOWG8g/97v7Qqx/Xv28K/aRPqd/9rhF1/vl9OS6/oXDz9rEel5+v3DZ3vmtGR79vAli0TP0wB5B5w3kB/7t4eP7Yox//va4aGfRsRavadG9P7h4ROvt2u1ylftRFLKswwLL0ylgfxT9/efJgeZhOdPLzXigYCssawr6fqnDg/fchxfvM5avZ9G9BJX7ONyzx2iY+oyH/hd1c9yxTqmdgHtmk4EeeHOp8lBdq1yIaerSCggEyryFG8Xn3PLUDjERyMqWr0PphYO0TF1KJ/KVq9jqhuU3VJEkHXNUK98epD1dnSkaioSDMgdJmuSn+Z00jU4jWzlkPEbUdXqx2fq60+U1WsPzIbyqWz1jsBpsOxMooKsaYZ63XsAWW9IR6qmIsGA3GFyO/kx0eAcZteEQw4PR57Yqlv94UuOA892RfQpwiGHTzRvEQfySbT6w8On9SX3TSWDrGmG2rL3AbLWkK7EdkXCAbnL5mb69beq6/fhF60teeeQsRtR3erHZurOIYefatRvGJ92rb7N1CbGpGM6yO1mqC9wHyDrLelIbVUkIJA7TG4lf07Q6fDw/dZJNeG65JBxG1FxBycMGfNyX41lS9WNPnUQn+penatuMlWFjXbUA+RWM9SXuBeQ9aZ0pDYrEhLIHSY3k98UrZjvLbNrikPGbERKqx+TqYpDmn3qED7xKVFpazC1CTLluAfIzWaoL24/IOtt6UhtVCQokDtMbiQ/JjUK9tcYTFEdcnj4R49eK7YPN/bXquNrj364FOjaf7g6//0fqVb81s+piskKhUXf/W1V8c//pFRcKvxw/uEuy0S6sLDei6r+gqr48Ndlxey/UNC1bykUin+9ofgXhGIDlo/m1651KhSKf/Lzqubf/m6pmWyhUFjtr/3cb6mKf/R9vWKrhY9e4xVh2JX5rz3aBPk3VMUOCqsMQqHA8DdUiw8rkPsrFIq/++dUzV98vcE3+VDpyli+f9BAVrTiHSCimI69sP/7qhGHPxqNT43qHf4LgSzfMzZ1NSaRLiys96LK/7Rh8l+SFbP/QkHXvqVQKP4/DcV/SijuwJAXwIHvVCgU/6Sh+Eej8el/NzT/m9LkZtWtFj5aVETiUwfIQrGDwsqSJob/tWFxBXJ/hcI5f7nRM7TmwGQ+ZdKtFjPIPn2hZDYdNJjqMNFo0iada3S/lvGslNH29/pbikvet8m7nwfINVYRgixNoPAGYp4KUOvXnH6uYejxR2lEYz68qjDVMWTtZL/CVNeHS1w0A+QdShGC/Kx8nbXdVsv1G7PVZ3IjGrPVZ3KfOmarzzKZqWNeWjKAvCNUfCBn7GFRsdmnfXf1G7fVS41o3FYvM3XUVi8zddRLi8xUgLwbuMQCMn/iuNzMN0/lRUPM5o7c6rPsaWHFyK0+q6fMR3ZIVs/mjtzqswwg1z1UhCB/TbRk42R5VUNRv7Fbfd2Ixm71NVNHb/WCqaNfWmqmAuQsRpCrW6hn64uC6U95uTfPW5jyd54rmWq7g+vMbjhRXO7tY1mDho5TRZ/q0qt35O9MBsg7aOIDubyFcn0flNfPR6svrkQ+Wn1xuffR6ss+1cOlpexTAXJJKn45jAvk629RXot7aswnjXbXId6I/LR6zlQvDsnYs3ZeWj1nqpdLC0CWG5w3kNkUrcvNU2nL9ffHH9dXVyI/rZ41Ik+tPnvs/cYz67K7hvwHyDv0IgT5Tbebp6qOlwe7ykb2b3n74OBkqRi9zMWmJEdzoKlSNLYzQzXmx+4RVisKRdZ5tHw6KamzkBvcuaCT+1cY5Oz7/q+r0r5tIpSvMz9yj7DaUyiyuoyWT8xRi9NT5sK7kscX+cmy3KTEaP5qqxSN9ZnW/Lg9wsB3p8h6cbLJo+XTJi96ppP8QmpxB/m5dBTbX22V4qmE1vy4PUKiyKIYHEU63rubl1/cW+f56a7JXQ79bNhO1fT/9FWa3o6eJerNj9ojGYkiazYyOom1f1oIwy/LfqpsBHm+7tkaAsimr1IAhrmZoDc/ao9kZIrUILhhFo7UgaDR7fyktmrFvLdgk35ndUpMf7RViqcCWvPj9kgBPokiJOGQfFt7T64Bm5xld4Rsu1yFZKujLdoqOeYNQExrftweKVCVG5gVZpKwVduEAmx2ryxNrsFZnl+cLZds1Hs5oSljFaWt0ljK/evRmh+3RwrQ5AZmRZEkbNU2oUA9Ty7X4Ozg9orbwK6KEQ75tFWaENKBRWnNj9sjBSJyA7NCRBK2aptQ4ELXP9XlRznNYq5SXbdQ/5jNj9IjBdSdFDmQNvFUQadwcF6TjD9g1mtH67XR5/mm/h/NH3OVgq+G2fwoPVJg3kmR4k69+hFRp07h4NzXsP626J9qN8oWswGffBjHf3OVgq+D2fwoPVJgTqIISTgkl9aGX0i3SovFqrTxPMYJCW2VQsLcbIvW/Lg9UlS4rpe5+uVZkrCLwqlkTqtAodgX5W4Etw6koNRUFg0uR1RF7AcrnFaBMFvsi9Lj9khRBRJFSMLT+sdS2kF+m0tUuwW/p8pO8k3x8BGbpY3xOQm1Spb6h3daNT8Jj3CQSRQhCQflQjYgv728e5BvCuYcFI8frS7yzWKxOKhDIUFZbDVGrZJVPDQB1fwkPMIhJlGEJByWA8+KRyHKDol1U8UMy5pRiW2bSJ8yV6oUFtou1ijmp+ERKp9cYApVZnW2WJytGtadsv6pldiQCfdQW6VwzW1apjU/bo80q4hjIAAEgAAQAAJAAAgAASAABIAAEAACQAAIAAEgAASAABAIDYH1IsJ3vEIDEfYAgQqBpfgiDRABAkCgC4HFgfT9sy4hnq7jk3Nmk2KcAwLpIHDg+gnB1bJNPOfM6eCFmgABEwKDKDEos8kqnAMC0yHAn1tbFL1F3Wksl6ssO2U/a3GqccSsW58vFufliyU83+p8wWQu8/Nl/bKJqqCdJSvKY6Wfs9KkzDuDWDI2IBAVAuVz1fnBSrqpyfmwjXUX1Rd72anGEX8RoNiKZ+HZzdApe16eyfCNv8tVbKqCVpaivNMLnmXDlkWoM0sGCU3YA4FIEGDv/Ryc32XsYB+qrScJKj4d5BeLBVsEhL9Nwt5gkI7Yy4/5ydk54wAnFMt3mR8cZGeLi/xkUS9qZcnC811esE8Onm/4B2hEZtmgSDCEmUBAIHC7fFO4+IJPk0/lnDZ7X5jFihh1ipe0yiPW6Iv4EXuneMV5Ub1azKRqNtmyMG0sX/EtXPaSOc9WZpYNEkZiDwQiQaD6whK7USr6mdLqqn+q3rsvvj7H+FTeGBVHt0X46IJ3UIJdghJV1c1ZSj6V61+V61iUfJINigRDmAkEBAK384u6S2n2T0WHVNCFM0U+2oiF4Ba8e2N8qtQ1+idTlpJPZT7BJG6JbJAwEnsgEAkCfCLh4uRszc1t8knMLPBVqnZfCuRH5QCNZTnjNFvWH+Bs8ElW0MzSxSfZoEgwhJlAoEZgXS4cyx9s6ObTUuHTkvGpIGCVpc5X3QJVumUKarPU/ZrcP2WSQbWR+AME4kFgubhkMwprEp+qQWLVP7HOptg6+yfOp1YWPZ+YImFQpRU7IBAZAmyUtaj5xNYRY21fvWNSj6T7p2Lc1sGnKrngjSZLJ58YeIVBkYEIc2ePAKPOugCBf8BbjNvYnHjBp3pG75KzSz5qzu918MmSRccnxaDZuwcAxIYA75fYxj6mec74VBCA/a/4xB+aYFMOIv60O2KSSvypi0+SAk0WHZ8y2SBWOjYgEBMC7MmIgwV/NoEFZlcbvkLi+cWmiAexr9dWT0Sw7on1T/JR8XzEOf+WLaeV6Ne41Mnu+T1rlhafeGbZoJiAhK1AgCNQTu/ll/yJ2PLRuYvTYlqBTc+xts22opNRj8TDeOW3bHd84hnEJDkjl6xAk6XBpyqzbBBcBARiQ4A/KF4+X86Gfex/MZBjleDT3fzzqOWLSuoRO82ztb9ly54WZ7de5eaYRYjzR/iKzLJBu5P4BwSiRoDTYbepR7t0w78eWQzacAoIRI2ASgf1yKliPbI46YUQEIgQAZUO6pFTdXpkcdILISAQIQIqHdQjp+r0yOKkF0JAIEIEznYzC8x69cipOj2yOOmFEBAAAkAACAABIAAEgAAQAAJAAAgAgYkQ+P/u1Y9v4RVxrQAAAABJRU5ErkJggg==;direction=east;" vertex="1" parent="1">
          <mxGeometry x="170.5" y="170" width="847" height="724" as="geometry" />
        </mxCell>
        <mxCell id="3T9PzSUFlM8iKbFbuDOI-19" value="" style="group" vertex="1" connectable="0" parent="1">
          <mxGeometry x="414" y="435" width="360" height="150" as="geometry" />
        </mxCell>
        <mxCell id="3T9PzSUFlM8iKbFbuDOI-7" value="" style="rounded=0;whiteSpace=wrap;html=1;labelBorderColor=none;strokeWidth=2;container=0;" vertex="1" parent="3T9PzSUFlM8iKbFbuDOI-19">
          <mxGeometry width="360" height="150" as="geometry" />
        </mxCell>
        <mxCell id="3T9PzSUFlM8iKbFbuDOI-2" value="" style="rhombus;whiteSpace=wrap;html=1;strokeColor=none;fillColor=#0000ff;rotation=0;movable=1;resizable=1;rotatable=1;deletable=1;editable=1;locked=0;connectable=1;container=0;" vertex="1" parent="3T9PzSUFlM8iKbFbuDOI-19">
          <mxGeometry x="16.25" y="111" width="16" height="24" as="geometry" />
        </mxCell>
        <mxCell id="3T9PzSUFlM8iKbFbuDOI-3" value="" style="ellipse;whiteSpace=wrap;html=1;aspect=fixed;strokeColor=none;fillColor=#007e00;rotation=0;movable=1;resizable=1;rotatable=1;deletable=1;editable=1;locked=0;connectable=1;container=0;" vertex="1" parent="3T9PzSUFlM8iKbFbuDOI-19">
          <mxGeometry x="15" y="81" width="18" height="18" as="geometry" />
        </mxCell>
        <mxCell id="3T9PzSUFlM8iKbFbuDOI-5" value="" style="whiteSpace=wrap;html=1;aspect=fixed;fillColor=#ff0000;strokeColor=none;rotation=0;movable=1;resizable=1;rotatable=1;deletable=1;editable=1;locked=0;connectable=1;container=0;" vertex="1" parent="3T9PzSUFlM8iKbFbuDOI-19">
          <mxGeometry x="17" y="51" width="14" height="14" as="geometry" />
        </mxCell>
        <mxCell id="3T9PzSUFlM8iKbFbuDOI-6" value="" style="triangle;whiteSpace=wrap;html=1;rotation=-90;fillColor=#00bfbf;strokeColor=none;movable=1;resizable=1;rotatable=1;deletable=1;editable=1;locked=0;connectable=1;container=0;" vertex="1" parent="3T9PzSUFlM8iKbFbuDOI-19">
          <mxGeometry x="15.5" y="15" width="17" height="20" as="geometry" />
        </mxCell>
        <mxCell id="3T9PzSUFlM8iKbFbuDOI-8" value="&lt;font data-font-src=&quot;https://fonts.googleapis.com/css?family=Arial&quot; face=&quot;Arial&quot; style=&quot;font-size: 26px;&quot;&gt;equidistant&lt;/font&gt;" style="text;html=1;strokeColor=none;fillColor=none;align=left;verticalAlign=middle;whiteSpace=wrap;rounded=0;fontSize=26;fontStyle=0;flipV=0;container=0;" vertex="1" parent="3T9PzSUFlM8iKbFbuDOI-19">
          <mxGeometry x="58" y="108" width="129" height="30" as="geometry" />
        </mxCell>
        <mxCell id="3T9PzSUFlM8iKbFbuDOI-9" value="&lt;font data-font-src=&quot;https://fonts.googleapis.com/css?family=Arial&quot; face=&quot;Arial&quot; style=&quot;font-size: 26px;&quot;&gt;Legendre-Gauss&lt;/font&gt;" style="text;html=1;strokeColor=none;fillColor=none;align=left;verticalAlign=middle;whiteSpace=wrap;rounded=0;fontSize=26;fontStyle=0;container=0;" vertex="1" parent="3T9PzSUFlM8iKbFbuDOI-19">
          <mxGeometry x="58" y="75" width="202" height="30" as="geometry" />
        </mxCell>
        <mxCell id="3T9PzSUFlM8iKbFbuDOI-10" value="&lt;font data-font-src=&quot;https://fonts.googleapis.com/css?family=Arial&quot; face=&quot;Arial&quot; style=&quot;font-size: 26px;&quot;&gt;Legendre-Gauss-Radau&lt;/font&gt;" style="text;html=1;strokeColor=none;fillColor=none;align=left;verticalAlign=middle;whiteSpace=wrap;rounded=0;fontSize=26;fontStyle=0;container=0;" vertex="1" parent="3T9PzSUFlM8iKbFbuDOI-19">
          <mxGeometry x="58" y="43" width="282" height="30" as="geometry" />
        </mxCell>
        <mxCell id="3T9PzSUFlM8iKbFbuDOI-11" value="&lt;font data-font-src=&quot;https://fonts.googleapis.com/css?family=Arial&quot; face=&quot;Arial&quot; style=&quot;font-size: 26px;&quot;&gt;Legendre-Gauss-Lobatto&lt;/font&gt;" style="text;html=1;strokeColor=none;fillColor=none;align=left;verticalAlign=middle;whiteSpace=wrap;rounded=0;fontSize=26;fontStyle=0;flipV=0;container=0;" vertex="1" parent="3T9PzSUFlM8iKbFbuDOI-19">
          <mxGeometry x="58" y="10" width="292" height="30" as="geometry" />
        </mxCell>
        <mxCell id="3T9PzSUFlM8iKbFbuDOI-20" value="&lt;font data-font-src=&quot;https://fonts.googleapis.com/css?family=Arial&quot; face=&quot;Arial&quot; style=&quot;font-size: 26px;&quot;&gt;support points&lt;/font&gt;" style="text;html=1;strokeColor=none;fillColor=default;align=center;verticalAlign=middle;whiteSpace=wrap;rounded=0;fontSize=26;fontStyle=0;flipV=0;container=0;" vertex="1" parent="1">
          <mxGeometry x="447" y="863" width="292" height="30" as="geometry" />
        </mxCell>
        <mxCell id="3T9PzSUFlM8iKbFbuDOI-21" value="&lt;font data-font-src=&quot;https://fonts.googleapis.com/css?family=Arial&quot; face=&quot;Arial&quot; style=&quot;font-size: 26px;&quot;&gt;0.25&lt;/font&gt;" style="text;html=1;strokeColor=none;fillColor=default;align=center;verticalAlign=middle;whiteSpace=wrap;rounded=0;fontSize=26;fontStyle=0;flipV=0;container=0;" vertex="1" parent="1">
          <mxGeometry x="358" y="839" width="70" height="30" as="geometry" />
        </mxCell>
        <mxCell id="3T9PzSUFlM8iKbFbuDOI-22" value="&lt;font data-font-src=&quot;https://fonts.googleapis.com/css?family=Arial&quot; face=&quot;Arial&quot; style=&quot;font-size: 26px;&quot;&gt;0&lt;/font&gt;" style="text;html=1;strokeColor=none;fillColor=default;align=center;verticalAlign=middle;whiteSpace=wrap;rounded=0;fontSize=26;fontStyle=0;flipV=0;container=0;" vertex="1" parent="1">
          <mxGeometry x="158" y="839" width="69" height="30" as="geometry" />
        </mxCell>
        <mxCell id="3T9PzSUFlM8iKbFbuDOI-23" value="&lt;font data-font-src=&quot;https://fonts.googleapis.com/css?family=Arial&quot; face=&quot;Arial&quot; style=&quot;font-size: 26px;&quot;&gt;0.75&lt;/font&gt;" style="text;html=1;strokeColor=none;fillColor=default;align=center;verticalAlign=middle;whiteSpace=wrap;rounded=0;fontSize=26;fontStyle=0;flipV=0;container=0;" vertex="1" parent="1">
          <mxGeometry x="774" y="839" width="40" height="30" as="geometry" />
        </mxCell>
        <mxCell id="3T9PzSUFlM8iKbFbuDOI-24" value="&lt;font data-font-src=&quot;https://fonts.googleapis.com/css?family=Arial&quot; face=&quot;Arial&quot; style=&quot;font-size: 26px;&quot;&gt;0.5&lt;/font&gt;" style="text;html=1;strokeColor=none;fillColor=default;align=center;verticalAlign=middle;whiteSpace=wrap;rounded=0;fontSize=26;fontStyle=0;flipV=0;container=0;" vertex="1" parent="1">
          <mxGeometry x="579" y="839" width="29" height="30" as="geometry" />
        </mxCell>
        <mxCell id="3T9PzSUFlM8iKbFbuDOI-25" value="&lt;font data-font-src=&quot;https://fonts.googleapis.com/css?family=Arial&quot; face=&quot;Arial&quot; style=&quot;font-size: 26px;&quot;&gt;1&lt;/font&gt;" style="text;html=1;strokeColor=none;fillColor=default;align=center;verticalAlign=middle;whiteSpace=wrap;rounded=0;fontSize=26;fontStyle=0;flipV=0;container=0;" vertex="1" parent="1">
          <mxGeometry x="980" y="839" width="29" height="30" as="geometry" />
        </mxCell>
      </root>
    </mxGraphModel>
  </diagram>
</mxfile>
